<svg
   width="143.45302mm"
   height="154.20442mm"
   viewBox="0 0 143.45302 154.20442"
   version="1.1"
   id="svg1"
   xml:space="preserve"
   xmlns="http://www.w3.org/2000/svg"
   xmlns:svg="http://www.w3.org/2000/svg"><defs
     id="defs1" /><g
     id="layer1"
     transform="translate(-34.317074,-71.539537)"><path
       style="fill:#000000"
       d="m 101.03158,224.7854 c -0.0304,-0.52716 -0.0554,-1.19661 -0.0556,-1.48765 l -3.9e-4,-0.52916 0.40217,-10e-4 c 0.95481,-0.003 4.33293,-0.17787 5.70814,-0.29602 21.03255,-1.80704 40.19267,-12.46885 52.94616,-29.46235 7.9882,-10.64395 12.87197,-22.98388 14.34195,-36.23817 0.33301,-3.00262 0.38829,-4.15973 0.38829,-8.128 0,-3.95714 -0.0509,-5.02646 -0.38915,-8.17034 -2.18643,-20.32351 -12.74875,-38.77758 -29.31212,-51.212937 -11.0398,-8.288405 -24.09323,-13.256631 -37.9471,-14.442924 -1.41428,-0.121103 -5.03811,-0.296817 -6.1595,-0.298666 l -0.48684,-8.02e-4 v -1.488922 -1.488922 l 1.62984,0.05297 c 2.49866,0.08121 4.59803,0.209406 6.4135,0.391626 20.37984,2.045544 38.76324,11.95354 51.96876,28.009307 0.40403,0.49124 1.32112,1.67436 2.03799,2.62917 11.32126,15.07909 16.6248,33.85421 14.94891,52.92077 -1.45968,16.60657 -8.39137,32.36533 -19.73812,44.87334 -1.46914,1.6195 -4.59179,4.70207 -6.12221,6.04363 -12.20901,10.70241 -27.14953,17.23493 -43.09533,18.84278 -1.70306,0.17172 -3.69026,0.29932 -6.06156,0.38923 l -1.36255,0.0516 z m -4.119997,-9.81369 C 83.890876,214.20419 71.456198,209.6656 61.05525,201.88433 46.08652,190.68576 36.544755,173.91344 34.643664,155.45858 c -0.250021,-2.42707 -0.32502,-3.98263 -0.326568,-6.77333 -0.0016,-2.91865 0.08406,-4.59329 0.370238,-7.23689 2.101069,-19.40853 12.74774,-36.9794 29.051485,-47.945485 9.992103,-6.720806 21.355557,-10.517206 33.511431,-11.195787 0.814916,-0.04549 1.872191,-0.08326 2.3495,-0.08394 l 0.86783,-0.0012 v 1.481666 1.481667 l -0.952497,3.93e-4 c -4.069307,0.0017 -9.698411,0.750118 -14.263562,1.89646 -23.289693,5.84821 -41.50668,24.652096 -46.556555,48.056476 -0.983263,4.55708 -1.416998,8.69068 -1.416998,13.50434 0,2.9477 0.07808,4.43635 0.373038,7.112 2.057823,18.66727 12.447405,35.54252 28.304635,45.97372 7.722275,5.07987 16.539086,8.42465 25.664275,9.73609 2.702827,0.38845 5.818849,0.63586 8.008299,0.63586 h 1.237855 l 0.0548,0.64777 c 0.0301,0.35628 0.0547,1.02303 0.0547,1.48167 v 0.83389 l -1.460497,-0.0124 c -0.803275,-0.007 -1.97485,-0.0427 -2.6035,-0.0798 z M 68.975987,177.26494 c -0.141188,-0.15029 -0.179936,-0.2648 -0.141468,-0.41807 0.02914,-0.11609 1.386348,-1.70187 3.016021,-3.52394 l 2.963043,-3.31287 v -19.52104 -19.52105 l -2.794,-4.76808 c -1.637585,-2.79462 -2.794,-4.85506 -2.794,-4.97822 0,-0.12616 0.08914,-0.28025 0.223085,-0.38561 l 0.223084,-0.17548 H 81.80528 93.938807 l 0.214736,0.1905 c 0.202311,0.17948 14.461387,25.99325 14.467437,26.19097 0.002,0.0509 -1.78974,3.46081 -3.98066,7.57767 -2.19092,4.11686 -4.698147,8.83775 -5.571621,10.49086 -0.873474,1.65312 -1.647237,3.0533 -1.719474,3.11151 -0.245464,0.19779 -0.582744,0.12674 -0.803827,-0.16934 -0.113009,-0.15134 -4.424631,-7.49512 -9.581383,-16.3195 -5.156752,-8.82438 -9.428679,-16.10012 -9.493172,-16.16831 -0.09992,-0.10565 -0.117225,2.44165 -0.117022,17.22967 l 2.37e-4,17.35364 2.814929,3.09974 c 1.548211,1.70485 2.886367,3.17996 2.973679,3.27802 0.2001,0.22474 0.203595,0.5633 0.008,0.77938 -0.147516,0.163 -0.297063,0.16653 -7.065492,0.16653 h -6.914786 z m 41.911743,-0.0161 c -0.20885,-0.26551 -0.21647,-0.35804 -0.0492,-0.59691 0.0695,-0.0992 1.47918,-1.63967 3.13267,-3.4233 l 3.00635,-3.24296 0.004,-20.53504 0.004,-20.53504 2.14683,-4.02166 c 1.49762,-2.8055 2.20701,-4.05346 2.34585,-4.1268 0.15598,-0.0824 2.43512,-0.10071 10.54064,-0.0847 10.03551,0.0199 10.3469,0.0252 10.51983,0.18176 0.38212,0.34584 0.34139,0.40561 -2.9126,4.27365 l -3.08986,3.67294 v 20.59572 20.59571 l 2.83406,3.33268 c 3.01162,3.54147 3.07791,3.6402 2.68378,3.99689 -0.14288,0.1293 -1.34502,0.14012 -15.57252,0.14012 h -15.41769 z"
       id="path1" /></g></svg>
